<mxfile host="app.diagrams.net" modified="2021-05-16T04:55:49.241Z" agent="5.0 (Macintosh; Intel Mac OS X 10_15_7) AppleWebKit/537.36 (KHTML, like Gecko) Chrome/90.0.4430.212 Safari/537.36" etag="BzJhxMaVzXflOny6d0vI" version="14.6.10" type="github">
  <diagram id="g7nmf-FaKMw0j1lxo3OD" name="Page-1">
    <mxGraphModel dx="1106" dy="841" grid="1" gridSize="10" guides="1" tooltips="1" connect="1" arrows="1" fold="1" page="1" pageScale="1" pageWidth="850" pageHeight="1100" math="0" shadow="0">
      <root>
        <mxCell id="0" />
        <mxCell id="1" parent="0" />
        <mxCell id="I269blWbNcy9UO4Hvc6d-14" value="" style="ellipse;whiteSpace=wrap;html=1;" vertex="1" parent="1">
          <mxGeometry x="130" y="340" width="490" height="310" as="geometry" />
        </mxCell>
        <mxCell id="I269blWbNcy9UO4Hvc6d-7" value="center&lt;br&gt;data&lt;br&gt;model" style="rounded=0;whiteSpace=wrap;html=1;" vertex="1" parent="1">
          <mxGeometry x="40" y="390" width="60" height="80" as="geometry" />
        </mxCell>
        <mxCell id="I269blWbNcy9UO4Hvc6d-13" value="保单" style="ellipse;whiteSpace=wrap;html=1;aspect=fixed;" vertex="1" parent="1">
          <mxGeometry x="210" y="400" width="60" height="60" as="geometry" />
        </mxCell>
        <mxCell id="I269blWbNcy9UO4Hvc6d-15" value="raw input" style="text;html=1;strokeColor=none;fillColor=none;align=center;verticalAlign=middle;whiteSpace=wrap;rounded=0;" vertex="1" parent="1">
          <mxGeometry x="337.5" y="350" width="75" height="30" as="geometry" />
        </mxCell>
        <mxCell id="I269blWbNcy9UO4Hvc6d-16" value="" style="ellipse;whiteSpace=wrap;html=1;" vertex="1" parent="1">
          <mxGeometry x="640" y="340" width="490" height="310" as="geometry" />
        </mxCell>
        <mxCell id="I269blWbNcy9UO4Hvc6d-17" value="赔案" style="ellipse;whiteSpace=wrap;html=1;aspect=fixed;" vertex="1" parent="1">
          <mxGeometry x="300" y="390" width="60" height="60" as="geometry" />
        </mxCell>
        <mxCell id="I269blWbNcy9UO4Hvc6d-18" value="病历" style="ellipse;whiteSpace=wrap;html=1;aspect=fixed;" vertex="1" parent="1">
          <mxGeometry x="380" y="400" width="60" height="60" as="geometry" />
        </mxCell>
        <mxCell id="I269blWbNcy9UO4Hvc6d-19" value="明细" style="ellipse;whiteSpace=wrap;html=1;aspect=fixed;" vertex="1" parent="1">
          <mxGeometry x="337.5" y="460" width="60" height="60" as="geometry" />
        </mxCell>
        <mxCell id="I269blWbNcy9UO4Hvc6d-20" value="接口对接" style="shape=cylinder3;whiteSpace=wrap;html=1;boundedLbl=1;backgroundOutline=1;size=15;" vertex="1" parent="1">
          <mxGeometry x="190" y="140" width="60" height="80" as="geometry" />
        </mxCell>
        <mxCell id="I269blWbNcy9UO4Hvc6d-22" value="影像件" style="strokeWidth=2;html=1;shape=mxgraph.flowchart.multi-document;whiteSpace=wrap;" vertex="1" parent="1">
          <mxGeometry x="337.5" y="150" width="88" height="60" as="geometry" />
        </mxCell>
      </root>
    </mxGraphModel>
  </diagram>
</mxfile>
